<?xml version="1.0" encoding="UTF-8"?>
<svg id="Layer_1" data-name="Layer 1" xmlns="http://www.w3.org/2000/svg" viewBox="0 0 387.6 589.54">
  <defs>
    <style>
      .cls-1 {
        fill: #090909;
      }

      .cls-2 {
        fill: #fbb217;
      }

      .cls-3 {
        fill: #fcb316;
      }
    </style>
  </defs>
  <g>
    <polygon class="cls-1" points="52.4 340.62 0 393.02 0 484.73 104.81 589.54 157.21 537.13 52.4 432.33 52.4 340.62"/>
    <polygon class="cls-1" points="170.31 222.71 117.91 275.12 117.91 589.54 170.31 537.13 170.31 222.71"/>
    <polygon class="cls-1" points="170.31 104.81 117.91 157.21 117.91 262.02 170.31 209.61 170.31 104.81"/>
  </g>
  <g>
    <polygon class="cls-2" points="170.31 222.71 275.12 117.91 275.12 432.33 170.31 537.13 170.31 222.71"/>
    <polygon class="cls-3" points="157.21 537.13 157.21 235.81 52.4 340.62 52.4 432.33 157.21 537.13"/>
    <polygon class="cls-3" points="170.31 209.61 275.12 104.81 275.12 0 170.31 104.81 170.31 209.61"/>
  </g>
</svg>